{
  "accessors": [
    {
      "bufferView": 2,
      "componentType": 5126,
      "count": 1554,
      "max": [
        0.09323610365390778,
        0.09323609620332718,
        0.03917020559310913
      ],
      "min": [
        -0.09323610365390778,
        -0.09323610365390778,
        3.533812559908256e-06
      ],
      "type": "VEC3"
    },
    {
      "bufferView": 2,
      "byteOffset": 18648,
      "componentType": 5126,
      "count": 1554,
      "max": [
        1.0,
        1.0,
        0.9998576641082764
      ],
      "min": [
        -1.0,
        -1.0,
        -0.9998576641082764
      ],
      "type": "VEC3"
    },
    {
      "bufferView": 1,
      "componentType": 5126,
      "count": 1554,
      "max": [
        0.4506402015686035,
        0.9997550845146179
      ],
      "min": [
        0.0003574216098058969,
        0.00011306662781862542
      ],
      "type": "VEC2"
    },
    {
      "bufferView": 0,
      "componentType": 5125,
      "count": 7680,
      "type": "SCALAR"
    },
    {
      "bufferView": 2,
      "byteOffset": 37296,
      "componentType": 5126,
      "count": 1554,
      "max": [
        0.007721514441072941,
        0.1007150262594223,
        0.03853524103760719
      ],
      "min": [
        -0.178750678896904,
        -0.08575718104839325,
        -0.0006314308266155422
      ],
      "type": "VEC3"
    },
    {
      "bufferView": 2,
      "byteOffset": 55944,
      "componentType": 5126,
      "count": 1554,
      "max": [
        1.0,
        1.0,
        0.9998576641082764
      ],
      "min": [
        -1.0,
        -1.0,
        -0.9998576641082764
      ],
      "type": "VEC3"
    },
    {
      "bufferView": 1,
      "byteOffset": 12432,
      "componentType": 5126,
      "count": 1554,
      "max": [
        0.4506402015686035,
        0.9997550845146179
      ],
      "min": [
        0.0003574216098058969,
        0.00011306662781862542
      ],
      "type": "VEC2"
    },
    {
      "bufferView": 0,
      "byteOffset": 30720,
      "componentType": 5125,
      "count": 7680,
      "type": "SCALAR"
    }
  ],
  "asset": {
    "extras": {
      "author": "SusanKing (https://sketchfab.com/krolzuzannapl)",
      "license": "CC-BY-4.0 (http://creativecommons.org/licenses/by/4.0/)",
      "source": "https://sketchfab.com/3d-models/classic-golden-wedding-rings-99310b3e19b6419ab4663ac415458d80",
      "title": "Classic golden wedding rings"
    },
    "generator": "Sketchfab-12.66.0",
    "version": "2.0"
  },
  "bufferViews": [
    {
      "buffer": 0,
      "byteLength": 61440,
      "name": "floatBufferViews",
      "target": 34963
    },
    {
      "buffer": 0,
      "byteLength": 24864,
      "byteOffset": 61440,
      "byteStride": 8,
      "name": "floatBufferViews",
      "target": 34962
    },
    {
      "buffer": 0,
      "byteLength": 74592,
      "byteOffset": 86304,
      "byteStride": 12,
      "name": "floatBufferViews",
      "target": 34962
    }
  ],
  "buffers": [
    {
      "byteLength": 160896,
      "uri": "scene.bin"
    }
  ],
  "images": [
    {
      "uri": "textures/ring_baseColor.jpeg"
    },
    {
      "uri": "textures/ring_metallicRoughness.png"
    }
  ],
  "materials": [
    {
      "doubleSided": true,
      "name": "ring",
      "occlusionTexture": {
        "index": 1
      },
      "pbrMetallicRoughness": {
        "baseColorTexture": {
          "index": 0
        },
        "metallicRoughnessTexture": {
          "index": 1
        }
      }
    }
  ],
  "meshes": [
    {
      "name": "ring_ring_0",
      "primitives": [
        {
          "attributes": {
            "NORMAL": 1,
            "POSITION": 0,
            "TEXCOORD_0": 2
          },
          "indices": 3,
          "material": 0,
          "mode": 4
        }
      ]
    },
    {
      "name": "ring_small_ring_0",
      "primitives": [
        {
          "attributes": {
            "NORMAL": 5,
            "POSITION": 4,
            "TEXCOORD_0": 6
          },
          "indices": 7,
          "material": 0,
          "mode": 4
        }
      ]
    }
  ],
  "nodes": [
    {
      "children": [
        1
      ],
      "matrix": [
        1.0,
        0.0,
        0.0,
        0.0,
        0.0,
        2.220446049250313e-16,
        -1.0,
        0.0,
        0.0,
        1.0,
        2.220446049250313e-16,
        0.0,
        0.0,
        0.0,
        0.0,
        1.0
      ],
      "name": "Sketchfab_model"
    },
    {
      "children": [
        2
      ],
      "matrix": [
        1.0,
        0.0,
        0.0,
        0.0,
        0.0,
        0.0,
        1.0,
        0.0,
        0.0,
        -1.0,
        0.0,
        0.0,
        0.0,
        0.0,
        0.0,
        1.0
      ],
      "name": "be3e4e0465b84b5e8158b94adfddef05.fbx"
    },
    {
      "children": [
        3,
        5
      ],
      "name": "RootNode"
    },
    {
      "children": [
        4
      ],
      "matrix": [
        100.0,
        0.0,
        0.0,
        0.0,
        0.0,
        -1.629206793918314e-05,
        -99.99999999999868,
        0.0,
        0.0,
        99.99999999999868,
        -1.629206793918314e-05,
        0.0,
        0.0,
        0.0,
        0.0,
        1.0
      ],
      "name": "ring"
    },
    {
      "mesh": 0,
      "name": "ring_ring_0"
    },
    {
      "children": [
        6
      ],
      "matrix": [
        82.90976672615668,
        -31.185379190960887,
        -7.346322632602655e-06,
        0.0,
        -8.239160191389547e-06,
        -1.0377859613133936e-06,
        -88.58079528808554,
        0.0,
        31.18537919096067,
        82.909766726157,
        -3.8719896949366715e-06,
        0.0,
        15.799766540527344,
        0.005386024713516235,
        0.7473437190055847,
        1.0
      ],
      "name": "ring_small"
    },
    {
      "mesh": 1,
      "name": "ring_small_ring_0"
    }
  ],
  "samplers": [
    {
      "magFilter": 9729,
      "minFilter": 9987,
      "wrapS": 10497,
      "wrapT": 10497
    }
  ],
  "scene": 0,
  "scenes": [
    {
      "name": "Sketchfab_Scene",
      "nodes": [
        0
      ]
    }
  ],
  "textures": [
    {
      "sampler": 0,
      "source": 0
    },
    {
      "sampler": 0,
      "source": 1
    }
  ]
}
